   <svg
                  width="600"
                  height="106"
                  viewBox="0 0 600 106"
                  fill="none"
                  xmlns="http://www.w3.org/2000/svg"
                >
                  <rect width="600" height="105.406" fill="white" />
                  <path
                    d="M243.167 54.3975C242.421 54.5952 241.766 54.2833 241.098 54.0284C237.077 52.4907 233.051 50.9617 229.03 49.4239C227.685 48.9098 226.345 48.3958 225 47.8817C225.043 47.7675 225.161 47.7675 225.243 47.7323C227.026 47.0293 228.809 46.3308 230.596 45.6322C232.522 44.8765 234.448 44.1295 236.374 43.3738C238.031 42.7236 239.688 42.0689 241.345 41.4186C241.614 41.3132 241.883 41.2077 242.152 41.1023C242.529 40.9573 242.911 40.9793 243.293 41.0891C243.926 41.3879 244.238 41.9019 244.238 42.6049C244.243 44.3448 244.238 46.0847 244.238 47.8246C244.238 49.4415 244.225 51.0539 244.243 52.6708C244.256 53.5012 243.952 54.0943 243.167 54.3975Z"
                    fill="#101928"
                  />
                  <path
                    d="M226.076 51.0083C226.822 50.8106 227.477 51.1225 228.145 51.3773C232.166 52.9151 236.192 54.4441 240.213 55.9819C241.558 56.4959 242.898 57.01 244.243 57.5241C244.199 57.6383 244.082 57.6383 244 57.6734C242.217 58.3764 240.434 59.075 238.647 59.7736C236.721 60.5293 234.795 61.2762 232.869 62.032C231.212 62.6822 229.555 63.3369 227.898 63.9871C227.629 64.0926 227.36 64.198 227.091 64.3035C226.714 64.4485 226.332 64.4265 225.95 64.3167C225.317 64.0179 225.005 63.5038 225.005 62.8008C225 61.061 225.005 59.3211 225.005 57.5812C225.005 55.9643 225.018 54.3518 225 52.735C224.987 51.9046 225.291 51.3114 226.076 51.0083Z"
                    fill="#A0F01E"
                  />
                  <path
                    d="M373.425 47.3527C373.314 46.0248 372.772 44.9506 371.798 44.1302C370.832 43.3098 369.58 42.8996 368.044 42.8996C367.008 42.8996 366.087 43.0908 365.28 43.4732C364.474 43.8556 363.841 44.377 363.382 45.0375C362.923 45.698 362.694 46.4559 362.694 47.311C362.694 47.8603 362.798 48.3574 363.007 48.8024C363.222 49.2404 363.525 49.6332 363.914 49.9808C364.303 50.3215 364.766 50.6205 365.301 50.8777C365.836 51.135 366.427 51.3609 367.074 51.5556L369.41 52.2439C370.21 52.4873 370.947 52.7688 371.621 53.0886C372.302 53.4085 372.893 53.7909 373.394 54.2358C373.902 54.6738 374.294 55.1883 374.572 55.7793C374.858 56.3703 375 57.0516 375 57.8234C375 58.9497 374.708 59.9578 374.124 60.8478C373.547 61.7377 372.723 62.4399 371.652 62.9544C370.589 63.4619 369.334 63.7157 367.888 63.7157C366.511 63.7157 365.312 63.4828 364.29 63.017C363.274 62.5512 362.471 61.9046 361.88 61.0772C361.289 60.2429 360.956 59.2834 360.879 58.1988H362.214C362.284 59.0818 362.565 59.8466 363.059 60.4932C363.56 61.1328 364.223 61.6265 365.051 61.9741C365.878 62.3217 366.824 62.4955 367.888 62.4955C369.035 62.4955 370.046 62.3009 370.922 61.9115C371.798 61.5152 372.483 60.966 372.977 60.2637C373.47 59.5615 373.717 58.7446 373.717 57.8129C373.717 57.0621 373.54 56.419 373.185 55.8836C372.831 55.3482 372.306 54.8859 371.611 54.4966C370.922 54.1072 370.067 53.7596 369.045 53.4537L366.553 52.7028C364.884 52.1952 363.608 51.5035 362.725 50.6274C361.849 49.7514 361.411 48.6598 361.411 47.3527C361.411 46.2542 361.703 45.2809 362.287 44.4327C362.871 43.5775 363.664 42.9066 364.665 42.4199C365.673 41.9332 366.81 41.6898 368.075 41.6898C369.348 41.6898 370.47 41.9367 371.444 42.4303C372.417 42.917 373.189 43.5879 373.759 44.4431C374.329 45.2913 374.645 46.2612 374.708 47.3527H373.425Z"
                    fill="#676E76"
                  />
                  <path
                    d="M357.992 52.6921C357.992 54.896 357.61 56.8219 356.845 58.4697C356.08 60.1105 355.016 61.3863 353.654 62.2971C352.298 63.2079 350.734 63.6633 348.961 63.6633C347.181 63.6633 345.61 63.2079 344.247 62.2971C342.891 61.3793 341.831 60.1001 341.066 58.4593C340.301 56.8115 339.919 54.8891 339.919 52.6921C339.919 50.4881 340.301 48.5657 341.066 46.9249C341.838 45.2841 342.901 44.0083 344.257 43.0975C345.613 42.1797 347.181 41.7208 348.961 41.7208C350.734 41.7208 352.298 42.1762 353.654 43.087C355.016 43.9978 356.08 45.2771 356.845 46.9249C357.61 48.5657 357.992 50.4881 357.992 52.6921ZM356.72 52.6921C356.72 50.7106 356.386 48.9933 355.719 47.5402C355.058 46.0871 354.144 44.9642 352.976 44.1716C351.808 43.3721 350.469 42.9723 348.961 42.9723C347.452 42.9723 346.114 43.3686 344.946 44.1612C343.778 44.9469 342.86 46.0697 342.192 47.5298C341.532 48.9828 341.202 50.7036 341.202 52.6921C341.202 54.6597 341.528 56.3735 342.182 57.8335C342.842 59.2866 343.757 60.4129 344.925 61.2125C346.093 62.012 347.438 62.4118 348.961 62.4118C350.469 62.4118 351.808 62.0155 352.976 61.2229C354.144 60.4234 355.058 59.297 355.719 57.8439C356.386 56.3908 356.72 54.6736 356.72 52.6921Z"
                    fill="#676E76"
                  />
                  <path
                    d="M331.038 63.3708C329.996 63.3708 329.151 62.5257 329.151 61.4832V49.1823C329.151 48.1714 329.97 47.352 330.981 47.352H331.476C332.213 47.352 332.811 47.9497 332.811 48.6869V49.9255C332.811 49.9787 332.854 50.0218 332.907 50.0218C332.949 50.0218 332.986 49.9945 333 49.9546C333.294 49.0625 333.788 48.3723 334.48 47.8839C335.196 47.3763 336.013 47.1226 336.93 47.1226C337.139 47.1226 337.372 47.133 337.629 47.1538C338.013 47.1741 338.286 47.5038 338.286 47.8885V49.9232C338.286 50.303 337.902 50.5989 337.525 50.5537C337.184 50.505 336.854 50.4807 336.534 50.4807C335.846 50.4807 335.227 50.6301 334.678 50.9291C334.136 51.2211 333.708 51.6278 333.395 52.1493C333.082 52.6707 332.926 53.2721 332.926 53.9535V61.4832C332.926 62.5257 332.081 63.3708 331.038 63.3708Z"
                    fill="#101928"
                  />
                  <path
                    d="M318.071 63.6947C317.056 63.6947 316.141 63.5139 315.328 63.1524C314.521 62.7839 313.882 62.2416 313.409 61.5255C312.943 60.8093 312.71 59.9264 312.71 58.8765C312.71 57.9727 312.877 57.2253 313.211 56.6343C313.545 56.0433 314 55.5705 314.577 55.216C315.154 54.8614 315.804 54.5937 316.527 54.4129C317.257 54.2252 318.012 54.0896 318.79 54.0062C319.729 53.9089 320.49 53.822 321.074 53.7455C321.658 53.6621 322.082 53.5369 322.347 53.37C322.618 53.1962 322.753 52.9286 322.753 52.567V52.5044C322.753 51.7188 322.52 51.1104 322.055 50.6794C321.589 50.2483 320.918 50.0328 320.042 50.0328C319.117 50.0328 318.384 50.2344 317.841 50.6377C317.751 50.7053 317.666 50.7751 317.586 50.8468C316.942 51.4247 316.137 51.9784 315.28 51.8567C314.197 51.7029 313.474 50.5927 314.117 49.7077C314.267 49.5013 314.43 49.3072 314.608 49.1255C315.248 48.465 316.03 47.9713 316.955 47.6446C317.879 47.3108 318.901 47.144 320.021 47.144C320.793 47.144 321.561 47.2344 322.326 47.4151C323.09 47.5959 323.789 47.8949 324.422 48.312C325.055 48.7222 325.562 49.2819 325.944 49.9911C326.334 50.7002 326.529 51.5867 326.529 52.6505V61.5567C326.529 62.5589 325.716 63.3714 324.714 63.3714H324C323.392 63.3714 322.899 62.8788 322.899 62.2711V61.2486C322.899 61.2057 322.864 61.1709 322.821 61.1709C322.792 61.1709 322.766 61.1872 322.752 61.2129C322.524 61.6421 322.208 62.0453 321.804 62.4223C321.394 62.8047 320.876 63.1141 320.25 63.3505C319.632 63.58 318.905 63.6947 318.071 63.6947ZM319.051 60.9206C319.809 60.9206 320.466 60.7711 321.022 60.4721C321.578 60.1662 322.006 59.763 322.305 59.2624C322.611 58.7618 322.764 58.216 322.764 57.625V56.4042C322.764 56.1383 322.414 55.9339 322.159 56.0086C321.881 56.092 321.568 56.165 321.22 56.2276C320.873 56.2901 320.528 56.3458 320.188 56.3944C319.847 56.4431 319.552 56.4848 319.301 56.5196C318.738 56.5961 318.234 56.7212 317.789 56.895C317.344 57.0688 316.993 57.3122 316.736 57.625C316.479 57.931 316.35 58.3273 316.35 58.8139C316.35 59.5092 316.604 60.0341 317.111 60.3887C317.619 60.7433 318.265 60.9206 319.051 60.9206Z"
                    fill="#101928"
                  />
                  <path
                    d="M310.019 47.3523C310.825 47.3523 311.479 48.0059 311.479 48.8123C311.479 49.6187 310.825 50.2724 310.019 50.2724H303.73C302.924 50.2724 302.27 49.6187 302.27 48.8123C302.27 48.0059 302.924 47.3523 303.73 47.3523H310.019ZM304.544 45.402C304.544 44.3595 305.389 43.5144 306.431 43.5144C307.474 43.5144 308.319 44.3595 308.319 45.4021V58.5529C308.319 59.0605 308.396 59.4498 308.548 59.7209C308.708 59.9851 308.917 60.1659 309.174 60.2633C309.431 60.3606 309.717 60.4093 310.029 60.4093C310.266 60.4093 310.481 60.3919 310.676 60.3571C310.927 60.3138 311.18 60.472 311.234 60.7212L311.582 62.3388C311.69 62.8386 311.404 63.3332 310.905 63.4441C310.537 63.5275 310.085 63.5762 309.55 63.5901C308.604 63.6179 307.752 63.4754 306.995 63.1625C306.237 62.8427 305.635 62.349 305.19 61.6816C304.752 61.0141 304.537 60.1798 304.544 59.1786V45.402Z"
                    fill="#101928"
                  />
                  <path
                    d="M294.692 63.6842C293.093 63.6842 291.72 63.3331 290.573 62.6309C289.433 61.9287 288.553 60.9588 287.934 59.7213C287.322 58.4767 287.016 57.0445 287.016 55.4245C287.016 53.7976 287.329 52.3619 287.955 51.1174C288.581 49.8659 289.464 48.8926 290.604 48.1973C291.751 47.4951 293.107 47.144 294.671 47.144C295.971 47.144 297.122 47.3839 298.123 47.8636C299.131 48.3364 299.934 49.0073 300.532 49.8764C300.76 50.204 300.95 50.5528 301.103 50.9227C301.523 51.9399 300.617 52.9007 299.517 52.9007C298.606 52.9007 297.876 52.2028 297.34 51.4655C297.212 51.2894 297.067 51.1247 296.903 50.9714C296.361 50.4499 295.634 50.1892 294.723 50.1892C293.952 50.1892 293.274 50.3978 292.69 50.815C292.106 51.2252 291.65 51.8161 291.324 52.5879C291.004 53.3596 290.844 54.2843 290.844 55.362C290.844 56.4535 291.004 57.3921 291.324 58.1778C291.643 58.9565 292.092 59.5579 292.669 59.982C293.253 60.3991 293.938 60.6077 294.723 60.6077C295.28 60.6077 295.777 60.5034 296.215 60.2948C296.66 60.0793 297.032 59.7699 297.331 59.3667C297.34 59.3542 297.349 59.3417 297.358 59.3291C297.886 58.5928 298.601 57.8962 299.507 57.8962C300.61 57.8962 301.512 58.8615 301.095 59.883C300.948 60.2431 300.767 60.5854 300.553 60.9102C299.976 61.7792 299.19 62.4606 298.196 62.9542C297.202 63.4409 296.034 63.6842 294.692 63.6842Z"
                    fill="#101928"
                  />
                  <path
                    d="M278.562 63.6842C276.956 63.6842 275.569 63.3505 274.401 62.6831C273.24 62.0087 272.347 61.0562 271.721 59.8255C271.095 58.588 270.782 57.1314 270.782 55.4558C270.782 53.8081 271.095 52.3619 271.721 51.1174C272.354 49.8659 273.237 48.8926 274.37 48.1973C275.503 47.4951 276.835 47.144 278.364 47.144C279.351 47.144 280.283 47.3039 281.159 47.6237C282.042 47.9366 282.821 48.4233 283.495 49.0838C284.177 49.7443 284.712 50.5855 285.101 51.6076C285.491 52.6226 285.685 53.8324 285.685 55.2368V55.2607C285.685 55.8868 285.178 56.3944 284.552 56.3944H273.689C273.063 56.3944 272.555 55.8868 272.555 55.2607V54.9835C272.555 54.3574 273.063 53.8498 273.689 53.8498H280.922C281.552 53.8498 282.082 53.3263 281.916 52.7181C281.839 52.4364 281.733 52.1706 281.597 51.9204C281.291 51.3503 280.864 50.9019 280.314 50.5751C279.772 50.2483 279.139 50.0849 278.416 50.0849C277.645 50.0849 276.967 50.2727 276.383 50.6481C275.799 51.0166 275.343 51.5033 275.016 52.1081C274.697 52.7061 274.533 53.3631 274.526 54.0792V56.3006C274.526 57.2322 274.697 58.0318 275.037 58.6992C275.378 59.3597 275.854 59.8673 276.466 60.2218C277.078 60.5695 277.794 60.7433 278.614 60.7433C279.164 60.7433 279.661 60.6668 280.106 60.5139C280.551 60.3539 280.937 60.121 281.263 59.8151C281.381 59.7053 281.488 59.5862 281.584 59.4576C281.898 59.0407 282.368 58.7193 282.886 58.7776L284.255 58.9314C284.932 59.0075 285.399 59.6681 285.097 60.2788C284.876 60.7256 284.596 61.1377 284.257 61.515C283.638 62.2033 282.845 62.7387 281.879 63.1211C280.912 63.4965 279.807 63.6842 278.562 63.6842Z"
                    fill="#101928"
                  />
                  <path
                    d="M266.673 42.013C267.736 42.013 268.597 42.8745 268.597 43.9371V61.1135C268.597 62.3605 267.586 63.3714 266.339 63.3714C265.598 63.3714 264.904 63.0076 264.482 62.398L255.126 48.8732C255.105 48.8418 255.069 48.8231 255.031 48.8231C254.966 48.8231 254.914 48.8751 254.914 48.9394V61.4368C254.914 62.5053 254.048 63.3714 252.98 63.3714C251.911 63.3714 251.045 62.5053 251.045 61.4368V44.2838C251.045 43.0297 252.062 42.013 253.316 42.013C254.062 42.013 254.761 42.3795 255.185 42.9935L264.524 56.5186C264.547 56.5519 264.585 56.5717 264.626 56.5717C264.694 56.5717 264.749 56.5166 264.749 56.4486V43.9371C264.749 42.8745 265.61 42.013 266.673 42.013Z"
                    fill="#101928"
                  />
                </svg>